<svg width="100" height="100" xmlns="http://www.w3.org/2000/svg">
    <!-- Body (Brown) -->
    <path d="M 30 50 C 40 30, 70 30, 80 50 L 70 70 C 60 90, 40 90, 30 70 Z" fill="#8B4513"/>
    <!-- Head (White) -->
    <circle cx="70" cy="40" r="15" fill="#FFFFFF"/>
    <!-- Beak (Yellow) -->
    <polygon points="75,35 85,40 75,45" fill="#FFD700"/>
    <!-- Eye (Black) -->
    <circle cx="73" cy="38" r="3" fill="#000000"/>
    <!-- Tail (White) -->
    <rect x="20" y="60" width="10" height="20" fill="#FFFFFF"/>
    <!-- Wing (Brown) -->
    <path d="M 35 50 C 20 40, 10 30, 0 30 L 10 50 C 20 70, 30 60, 35 50 Z" fill="#8B4513"/>
    <path d="M 75 50 C 90 40, 100 30, 100 30 L 90 50 C 80 70, 70 60, 75 50 Z" fill="#8B4513"/>
</svg>
